<svg width="20" height="20" viewBox="0 0 20 20" fill="none" xmlns="http://www.w3.org/2000/svg">
<path opacity="0.5" d="M2.5 8.33366C2.5 5.19096 2.5 3.61961 3.47631 2.6433C4.45262 1.66699 6.02397 1.66699 9.16667 1.66699H10.8333C13.976 1.66699 15.5474 1.66699 16.5237 2.6433C17.5 3.61961 17.5 5.19096 17.5 8.33366V11.667C17.5 14.8097 17.5 16.381 16.5237 17.3573C15.5474 18.3337 13.976 18.3337 10.8333 18.3337H9.16667C6.02397 18.3337 4.45262 18.3337 3.47631 17.3573C2.5 16.381 2.5 14.8097 2.5 11.667V8.33366Z" fill="#DE7D54"/>
<path fill-rule="evenodd" clip-rule="evenodd" d="M9.99982 4.375C10.345 4.375 10.6248 4.65482 10.6248 5V6.04167H11.6665C12.0117 6.04167 12.2915 6.32149 12.2915 6.66667C12.2915 7.01185 12.0117 7.29167 11.6665 7.29167L10.6248 7.29167L10.6248 8.33333C10.6248 8.67851 10.345 8.95833 9.99982 8.95833C9.65465 8.95833 9.37482 8.67851 9.37482 8.33333L9.37482 7.29167H8.33314C7.98797 7.29167 7.70814 7.01184 7.70814 6.66667C7.70814 6.32149 7.98797 6.04167 8.33314 6.04167H9.37482L9.37482 5C9.37482 4.65482 9.65465 4.375 9.99982 4.375ZM6.0415 11.6667C6.0415 11.3215 6.32133 11.0417 6.6665 11.0417H13.3332C13.6783 11.0417 13.9582 11.3215 13.9582 11.6667C13.9582 12.0118 13.6783 12.2917 13.3332 12.2917H6.6665C6.32133 12.2917 6.0415 12.0118 6.0415 11.6667ZM6.87484 15C6.87484 14.6548 7.15466 14.375 7.49984 14.375H12.4998C12.845 14.375 13.1248 14.6548 13.1248 15C13.1248 15.3452 12.845 15.625 12.4998 15.625H7.49984C7.15466 15.625 6.87484 15.3452 6.87484 15Z" fill="#DE7D54"/>
</svg>
