<svg width="63" height="64" viewBox="0 0 63 64" fill="none" xmlns="http://www.w3.org/2000/svg">
<g clip-path="url(#clip0_589_11061)">
<path d="M31.502 35.2074C33.9252 35.2074 35.8897 33.252 35.8897 30.84C35.8897 28.428 33.9252 26.4727 31.502 26.4727C29.0787 26.4727 27.1143 28.428 27.1143 30.84C27.1143 33.252 29.0787 35.2074 31.502 35.2074Z" fill="black"/>
<path d="M10.3374 34.56C11.2478 33.6051 11.7031 32.3866 11.7031 30.9018C11.7031 29.417 11.2478 28.1959 10.3374 27.2435C9.42691 26.2887 8.23611 25.8125 6.7624 25.8125H4.9209V35.9936H6.7624C8.23611 35.9936 9.42691 35.5175 10.3374 34.5626V34.56Z" fill="black"/>
<path d="M43.2528 25.943V19.7555H60.405C55.5749 8.15872 44.0912 0 30.6941 0C17.2969 0 5.81068 8.15872 0.980601 19.7555H7.37441C10.7308 19.7555 13.4313 20.7872 15.476 22.8506C17.5232 24.9139 18.5443 27.5968 18.5443 30.9018C18.5443 34.2067 17.5207 36.8896 15.476 38.953C13.4313 41.0163 10.7282 42.048 7.37441 42.048H0.160156C4.39355 54.7994 16.4636 64.0026 30.6941 64.0026C37.7257 64.0026 44.2224 61.7498 49.5154 57.9379V25.943H43.2553H43.2528ZM39.2714 38.7354C37.1727 40.8858 34.5931 41.961 31.5299 41.961C28.4668 41.961 25.8871 40.8858 23.7884 38.7354C21.6898 36.585 20.6404 33.9533 20.6404 30.8403C20.6404 27.7274 21.6898 25.0957 23.7884 22.9453C25.8871 20.7949 28.4668 19.7197 31.5299 19.7197C34.5931 19.7197 37.1727 20.7949 39.2714 22.9453C41.3701 25.0957 42.4195 27.7274 42.4195 30.8403C42.4195 33.9533 41.3701 36.585 39.2714 38.7354Z" fill="black"/>
<path d="M49.5127 57.9355V57.9462L49.5154 57.9355H49.5127Z" fill="black"/>
<path d="M62.2673 25.943H56.2979V51.3459C60.4026 45.9724 62.8434 39.2703 62.8434 31.9974C62.8434 29.9263 62.6454 27.9014 62.2673 25.9404V25.943Z" fill="black"/>
</g>
<defs>
<clipPath id="clip0_589_11061">
<rect width="62.6804" height="64" fill="white" transform="translate(0.160156)"/>
</clipPath>
</defs>
</svg>
