<svg width="25" height="25" viewBox="0 0 25 25" fill="none" xmlns="http://www.w3.org/2000/svg">
<path fill-rule="evenodd" clip-rule="evenodd" d="M7.60312 6.20898C7.60312 5.01551 8.07723 3.87092 8.92114 3.027C9.76506 2.18309 10.9096 1.70898 12.1031 1.70898C13.2966 1.70898 14.4412 2.18309 15.2851 3.027C16.129 3.87092 16.6031 5.01551 16.6031 6.20898C16.6031 7.40246 16.129 8.54705 15.2851 9.39096C14.4412 10.2349 13.2966 10.709 12.1031 10.709C10.9096 10.709 9.76506 10.2349 8.92114 9.39096C8.07723 8.54705 7.60312 7.40246 7.60312 6.20898ZM3.85412 20.314C3.88784 18.1485 4.77176 16.083 6.31508 14.5636C7.8584 13.0441 9.93734 12.1924 12.1031 12.1924C14.2689 12.1924 16.3478 13.0441 17.8912 14.5636C19.4345 16.083 20.3184 18.1485 20.3521 20.314C20.3547 20.4598 20.3148 20.6032 20.2372 20.7266C20.1595 20.85 20.0476 20.9482 19.9151 21.009C17.4643 22.1327 14.7993 22.7126 12.1031 22.709C9.31712 22.709 6.67012 22.101 4.29112 21.009C4.15861 20.9482 4.0467 20.85 3.96909 20.7266C3.89147 20.6032 3.85152 20.4598 3.85412 20.314Z" fill="#667085"/>
</svg>
