<svg width="20" height="20" viewBox="0 0 20 20" fill="none" xmlns="http://www.w3.org/2000/svg">
<path opacity="0.5" d="M5.21677 17.8237H5.00016C4.21449 17.8237 3.82165 17.8237 3.57757 17.5796C3.3335 17.3355 3.3335 16.9427 3.3335 16.157V15.2304C3.3335 14.7983 3.3335 14.5822 3.44448 14.3893C3.55546 14.1964 3.72289 14.099 4.05775 13.9042C6.26231 12.622 9.39312 11.9003 11.4827 13.1466C11.6231 13.2303 11.7494 13.3314 11.8573 13.4526C12.3224 13.975 12.2885 14.7634 11.7525 15.2312C11.6393 15.33 11.5186 15.405 11.3971 15.431C11.497 15.4194 11.5927 15.4062 11.684 15.3916C12.4435 15.2705 13.081 14.8646 13.6647 14.4237L15.1707 13.286C15.7016 12.885 16.4896 12.8849 17.0206 13.2859C17.4987 13.6468 17.6448 14.2412 17.3426 14.7256C16.9901 15.2906 16.4936 16.0133 16.0168 16.4549C15.5393 16.8972 14.8284 17.292 14.2481 17.5721C13.6052 17.8824 12.895 18.0612 12.1726 18.1781C10.7075 18.4153 9.18064 18.3791 7.73044 18.0803C6.91061 17.9114 6.05916 17.8237 5.21677 17.8237Z" fill="#597ABF"/>
<path d="M5.48815 2.15515C5.18251 2.46079 5.06824 2.88308 5.02551 3.54182C6.0408 3.52828 6.86129 2.70779 6.87483 1.6925C6.21609 1.73523 5.7938 1.8495 5.48815 2.15515Z" fill="#597ABF"/>
<path d="M14.5118 2.15515C14.2062 1.8495 13.7839 1.73522 13.1252 1.6925C13.1387 2.70779 13.9592 3.52829 14.9745 3.54182C14.9318 2.88308 14.8175 2.46079 14.5118 2.15515Z" fill="#597ABF"/>
<path d="M14.5118 7.8455C14.2062 8.15115 13.7839 8.26542 13.1252 8.30815C13.1387 7.29286 13.9592 6.47236 14.9745 6.45883C14.9318 7.11757 14.8175 7.53986 14.5118 7.8455Z" fill="#597ABF"/>
<path d="M5.48816 7.8455C5.7938 8.15115 6.21609 8.26542 6.87483 8.30815C6.86129 7.29286 6.0408 6.47237 5.02551 6.45883C5.06824 7.11757 5.18251 7.53986 5.48816 7.8455Z" fill="#597ABF"/>
<path fill-rule="evenodd" clip-rule="evenodd" d="M5 4.79199C6.72589 4.79199 8.125 3.39288 8.125 1.66699H11.875C11.875 3.39288 13.2741 4.79199 15 4.79199V5.20866C13.2741 5.20866 11.875 6.60777 11.875 8.33366H8.125C8.125 6.60777 6.72589 5.20866 5 5.20866V4.79199ZM10 5.83366C10.4602 5.83366 10.8333 5.46056 10.8333 5.00033C10.8333 4.54009 10.4602 4.16699 10 4.16699C9.53976 4.16699 9.16667 4.54009 9.16667 5.00033C9.16667 5.46056 9.53976 5.83366 10 5.83366Z" fill="#597ABF"/>
</svg>
