<svg width="20" height="20" viewBox="0 0 20 20" fill="none" xmlns="http://www.w3.org/2000/svg">
<path opacity="0.5" d="M1.6665 7.71703C1.6665 10.8399 5.01603 14.1428 7.46795 16.1423C8.57794 17.0474 9.13294 17.5 9.99984 17.5C10.8667 17.5 11.4217 17.0474 12.5317 16.1423C14.9837 14.1429 18.3332 10.84 18.3332 7.717C18.3332 2.79109 13.7497 0.552197 9.99984 4.58231C6.24997 0.552197 1.6665 2.79125 1.6665 7.71703Z" fill="#3FB12C"/>
<path d="M8.41097 8.95549C8.48559 8.84889 8.54756 8.76043 8.60272 8.68467C8.64941 8.76593 8.70148 8.86055 8.76419 8.97456L10.1894 11.5659C10.3278 11.8176 10.4635 12.0645 10.5997 12.2437C10.7455 12.4354 11.0019 12.6981 11.4128 12.7058C11.8237 12.7135 12.0898 12.4606 12.2427 12.2745C12.3855 12.1006 12.5304 11.859 12.6782 11.6126L12.7243 11.5357C12.9083 11.229 13.0242 11.0373 13.1267 10.8988C13.2212 10.7712 13.2757 10.7295 13.3165 10.7065C13.3572 10.6834 13.421 10.6581 13.579 10.6427C13.7505 10.626 13.9745 10.6253 14.3321 10.6253H15C15.3452 10.6253 15.625 10.3455 15.625 10.0003C15.625 9.65517 15.3452 9.37534 15 9.37534L14.3052 9.37534C13.9826 9.37533 13.6972 9.37531 13.4581 9.39856C13.1988 9.42376 12.9464 9.47953 12.7006 9.61872C12.4548 9.75791 12.2771 9.94561 12.1221 10.155C11.9791 10.3481 11.8323 10.5927 11.6664 10.8694L11.6663 10.8694L11.6267 10.9354C11.5545 11.0559 11.4942 11.1563 11.4403 11.2424C11.3897 11.1543 11.3332 11.0518 11.2655 10.9287L9.841 8.33857C9.71257 8.10492 9.58462 7.87213 9.45482 7.70148C9.31303 7.51505 9.06991 7.26854 8.68032 7.2475C8.29072 7.22647 8.02248 7.44536 7.86144 7.61544C7.71402 7.77113 7.56175 7.98879 7.40891 8.20726L7.15109 8.57559C6.9618 8.846 6.84312 9.01449 6.7404 9.13601C6.64584 9.24787 6.59328 9.28451 6.55448 9.30471C6.51568 9.32491 6.45552 9.34695 6.30966 9.36028C6.1512 9.37475 5.94511 9.37534 5.61503 9.37534H5C4.65482 9.37534 4.375 9.65517 4.375 10.0003C4.375 10.3455 4.65482 10.6253 5 10.6253L5.6401 10.6253H5.64011C5.93758 10.6254 6.20128 10.6254 6.42334 10.6051C6.66423 10.5831 6.8992 10.5345 7.13174 10.4134C7.36429 10.2924 7.53884 10.1277 7.695 9.943C7.83897 9.7727 7.99017 9.55666 8.16075 9.31295L8.41097 8.95549Z" fill="#3FB12C"/>
</svg>
