<svg width="20" height="20" viewBox="0 0 20 20" fill="none" xmlns="http://www.w3.org/2000/svg">
<g clip-path="url(#clip0_589_11080)">
<path d="M4.16667 9.167H10.8333V10.8337H4.16667V13.3337L0 10.0003L4.16667 6.667V9.167ZM3.33333 15.0003H5.59C6.55224 15.8489 7.73891 16.4019 9.00761 16.5928C10.2763 16.7837 11.5731 16.6044 12.7425 16.0766C13.9119 15.5487 14.9041 14.6946 15.6001 13.6168C16.296 12.539 16.6663 11.2833 16.6663 10.0003C16.6663 8.71734 16.296 7.46161 15.6001 6.38382C14.9041 5.30602 13.9119 4.45194 12.7425 3.92408C11.5731 3.39621 10.2763 3.21697 9.00761 3.40788C7.73891 3.59878 6.55224 4.15171 5.59 5.00033H3.33333C4.10888 3.96464 5.11528 3.12409 6.27256 2.54545C7.42984 1.96681 8.70612 1.66602 10 1.66699C14.6025 1.66699 18.3333 5.39783 18.3333 10.0003C18.3333 14.6028 14.6025 18.3337 10 18.3337C8.70612 18.3346 7.42984 18.0338 6.27256 17.4552C5.11528 16.8766 4.10888 16.036 3.33333 15.0003Z" fill="#363739"/>
</g>
<defs>
<clipPath id="clip0_589_11080">
<rect width="20" height="20" fill="white"/>
</clipPath>
</defs>
</svg>
