<svg width="25" height="25" viewBox="0 0 25 25" fill="none" xmlns="http://www.w3.org/2000/svg">
<g clip-path="url(#clip0_589_10652)">
<path d="M22.5474 20.209H2.80859V18.209H3.79553V11.24C3.79553 6.25198 7.7729 2.20898 12.678 2.20898C17.5831 2.20898 21.5604 6.25198 21.5604 11.24V18.209H22.5474V20.209ZM5.76941 18.209H19.5866V11.24C19.5866 7.35698 16.4935 4.20898 12.678 4.20898C8.86248 4.20898 5.76941 7.35698 5.76941 11.24V18.209ZM10.2106 21.209H15.1453C15.1453 21.872 14.8854 22.5079 14.4227 22.9768C13.9599 23.4456 13.3324 23.709 12.678 23.709C12.0236 23.709 11.396 23.4456 10.9333 22.9768C10.4706 22.5079 10.2106 21.872 10.2106 21.209Z" fill="black"/>
<rect x="20.5732" y="0.208984" width="3.94775" height="4" rx="1.97388" fill="#65A999"/>
</g>
<defs>
<clipPath id="clip0_589_10652">
<rect width="23.6865" height="24" fill="white" transform="translate(0.834473 0.208984)"/>
</clipPath>
</defs>
</svg>
