<svg width="40" height="41" viewBox="0 0 40 41" fill="none" xmlns="http://www.w3.org/2000/svg">
<rect y="0.5" width="40" height="40" rx="8" fill="#D9E8FD"/>
<g clip-path="url(#clip0_2_8613)">
<path d="M25.841 24.159L26.017 24.336L26.195 24.159C26.4039 23.9501 26.652 23.7843 26.925 23.6713C27.1979 23.5582 27.4905 23.5 27.786 23.5C28.0815 23.5 28.3741 23.5582 28.647 23.6713C28.92 23.7843 29.1681 23.9501 29.377 24.159C29.5859 24.3679 29.7517 24.616 29.8647 24.889C29.9778 25.1619 30.036 25.4545 30.036 25.75C30.036 26.0455 29.9778 26.3381 29.8647 26.611C29.7517 26.884 29.5859 27.1321 29.377 27.341L26.017 30.7L22.659 27.341C22.237 26.919 22 26.3467 22 25.75C22 25.1533 22.237 24.581 22.659 24.159C23.081 23.737 23.6533 23.5 24.25 23.5C24.8467 23.5 25.419 23.737 25.841 24.159ZM20 22.5V24.5C18.4087 24.5 16.8826 25.1321 15.7574 26.2574C14.6321 27.3826 14 28.9087 14 30.5H12C12 28.4216 12.8089 26.4247 14.2555 24.9323C15.702 23.4398 17.6726 22.569 19.75 22.504L20 22.5ZM20 9.5C23.315 9.5 26 12.185 26 15.5C26.0006 17.0525 25.3991 18.5448 24.3221 19.663C23.2451 20.7812 21.7765 21.4383 20.225 21.496L20 21.5C16.685 21.5 14 18.815 14 15.5C13.9994 13.9475 14.6009 12.4552 15.6779 11.337C16.7549 10.2188 18.2235 9.56172 19.775 9.504L20 9.5ZM20 11.5C17.79 11.5 16 13.29 16 15.5C16 17.71 17.79 19.5 20 19.5C22.21 19.5 24 17.71 24 15.5C24 13.29 22.21 11.5 20 11.5Z" fill="#5399F6"/>
</g>
<defs>
<clipPath id="clip0_2_8613">
<rect width="24" height="24" fill="white" transform="translate(8 8.5)"/>
</clipPath>
</defs>
</svg>
