<svg width="41" height="41" viewBox="0 0 41 41" fill="none" xmlns="http://www.w3.org/2000/svg">
<rect x="0.666992" y="0.5" width="40" height="40" rx="8" fill="#E0F6F0"/>
<g clip-path="url(#clip0_2_8621)">
<path d="M22.667 22.752V24.842C21.7619 24.522 20.7933 24.4239 19.8424 24.5558C18.8915 24.6877 17.9862 25.0459 17.2024 25.6002C16.4187 26.1545 15.7793 26.8888 15.3382 27.7414C14.897 28.594 14.6668 29.54 14.667 30.5L12.667 30.499C12.6667 29.2779 12.9459 28.0729 13.4833 26.9764C14.0207 25.8799 14.8019 24.9209 15.7672 24.173C16.7325 23.4251 17.8562 22.9081 19.0521 22.6616C20.2481 22.4152 21.4847 22.4457 22.667 22.751V22.752ZM20.667 21.5C17.352 21.5 14.667 18.815 14.667 15.5C14.667 12.185 17.352 9.5 20.667 9.5C23.982 9.5 26.667 12.185 26.667 15.5C26.667 18.815 23.982 21.5 20.667 21.5ZM20.667 19.5C22.877 19.5 24.667 17.71 24.667 15.5C24.667 13.29 22.877 11.5 20.667 11.5C18.457 11.5 16.667 13.29 16.667 15.5C16.667 17.71 18.457 19.5 20.667 19.5ZM26.46 28.414L29.995 24.879L31.41 26.293L26.46 31.243L22.924 27.707L24.339 26.293L26.459 28.414H26.46Z" fill="#53B68B"/>
</g>
<defs>
<clipPath id="clip0_2_8621">
<rect width="24" height="24" fill="white" transform="translate(8.66699 8.5)"/>
</clipPath>
</defs>
</svg>
