<svg width="41" height="41" viewBox="0 0 41 41" fill="none" xmlns="http://www.w3.org/2000/svg">
<rect x="0.333496" y="0.5" width="40" height="40" rx="8" fill="#FEF5CF"/>
<g clip-path="url(#clip0_2_8629)">
<path d="M22.3335 22.752V24.842C21.4284 24.522 20.4598 24.4239 19.5089 24.5558C18.558 24.6877 17.6527 25.0459 16.8689 25.6002C16.0852 26.1545 15.4458 26.8888 15.0047 27.7414C14.5635 28.594 14.3333 29.54 14.3335 30.5L12.3335 30.499C12.3332 29.2779 12.6124 28.0729 13.1498 26.9764C13.6872 25.8799 14.4684 24.9209 15.4337 24.173C16.399 23.4251 17.5227 22.9081 18.7186 22.6616C19.9146 22.4152 21.1512 22.4457 22.3335 22.751V22.752ZM20.3335 21.5C17.0185 21.5 14.3335 18.815 14.3335 15.5C14.3335 12.185 17.0185 9.5 20.3335 9.5C23.6485 9.5 26.3335 12.185 26.3335 15.5C26.3335 18.815 23.6485 21.5 20.3335 21.5ZM20.3335 19.5C22.5435 19.5 24.3335 17.71 24.3335 15.5C24.3335 13.29 22.5435 11.5 20.3335 11.5C18.1235 11.5 16.3335 13.29 16.3335 15.5C16.3335 17.71 18.1235 19.5 20.3335 19.5ZM26.3335 25.5V22L31.3335 26.5L26.3335 31V27.5H23.3335V25.5H26.3335Z" fill="#E8AA3E"/>
</g>
<defs>
<clipPath id="clip0_2_8629">
<rect width="24" height="24" fill="white" transform="translate(8.3335 8.5)"/>
</clipPath>
</defs>
</svg>
