<svg width="18" height="18" viewBox="0 0 18 18" fill="none" xmlns="http://www.w3.org/2000/svg">
<path d="M3.47783 2.96863C5.00008 1.61811 6.96535 0.873757 9.00033 0.876963C13.6028 0.876963 17.3337 4.6078 17.3337 9.2103C17.3364 10.9135 16.8147 12.5763 15.8395 13.9728L13.5837 9.2103H15.667C15.667 7.88476 15.2719 6.58931 14.5321 5.48942C13.7923 4.38954 12.7414 3.53516 11.5137 3.03543C10.286 2.5357 8.93712 2.4133 7.63949 2.68387C6.34187 2.95445 5.15436 3.60571 4.22866 4.55446L3.47866 2.96946L3.47783 2.96863ZM14.5228 15.452C13.0006 16.8025 11.0353 17.5468 9.00033 17.5436C4.39783 17.5436 0.666992 13.8128 0.666992 9.2103C0.666992 7.43946 1.21949 5.7978 2.16116 4.4478L4.41699 9.2103H2.33366C2.33363 10.5358 2.72876 11.8313 3.46856 12.9312C4.20836 14.0311 5.25924 14.8854 6.48697 15.3852C7.7147 15.8849 9.06353 16.0073 10.3612 15.7367C11.6588 15.4661 12.8463 14.8149 13.772 13.8661L14.522 15.4511L14.5228 15.452ZM10.1787 11.567L7.82199 9.2103L5.46449 11.567L4.28616 10.3886L7.82199 6.85363L10.1787 9.2103L12.5362 6.85363L13.7145 8.03196L10.1787 11.567Z" fill="#4F555F"/>
</svg>
