<svg width="21" height="21" viewBox="0 0 21 21" fill="none" xmlns="http://www.w3.org/2000/svg">
<g clip-path="url(#clip0_589_10636)">
<path d="M9.83759 1.87598C13.9235 1.87598 17.2396 5.23598 17.2396 9.37598C17.2396 13.516 13.9235 16.876 9.83759 16.876C5.75166 16.876 2.43555 13.516 2.43555 9.37598C2.43555 5.23598 5.75166 1.87598 9.83759 1.87598ZM9.83759 15.2093C13.018 15.2093 15.5947 12.5985 15.5947 9.37598C15.5947 6.15264 13.018 3.54264 9.83759 3.54264C6.65636 3.54264 4.08045 6.15264 4.08045 9.37598C4.08045 12.5985 6.65636 15.2093 9.83759 15.2093ZM16.8161 15.2685L19.1428 17.6251L17.979 18.8043L15.6531 16.4468L16.8161 15.2685Z" fill="#667085"/>
</g>
<defs>
<clipPath id="clip0_589_10636">
<rect width="19.7388" height="20" fill="white" transform="translate(0.791016 0.208984)"/>
</clipPath>
</defs>
</svg>
