<svg width="20" height="20" viewBox="0 0 20 20" fill="none" xmlns="http://www.w3.org/2000/svg">
<g clip-path="url(#clip0_589_11075)">
<path d="M1.66699 10.0004C1.66699 9.27958 1.75866 8.58125 1.93033 7.91375C2.39071 7.93795 2.84883 7.83438 3.25403 7.61447C3.65922 7.39457 3.99573 7.06691 4.22633 6.6677C4.45694 6.2685 4.57266 5.8133 4.56072 5.35243C4.54878 4.89157 4.40963 4.44297 4.15866 4.05625C5.16611 3.06506 6.40932 2.34666 7.77116 1.96875C7.98032 2.37998 8.29919 2.72531 8.69248 2.96651C9.08577 3.20771 9.53813 3.33538 9.99949 3.33538C10.4609 3.33538 10.9132 3.20771 11.3065 2.96651C11.6998 2.72531 12.0187 2.37998 12.2278 1.96875C13.5897 2.34666 14.8329 3.06506 15.8403 4.05625C15.5891 4.44304 15.4497 4.89181 15.4377 5.35289C15.4257 5.81397 15.5414 6.26939 15.7722 6.66876C16.0029 7.06813 16.3396 7.39589 16.7451 7.61576C17.1505 7.83564 17.6089 7.93906 18.0695 7.91458C18.2412 8.58125 18.3328 9.27958 18.3328 10.0004C18.3328 10.7213 18.2412 11.4196 18.0695 12.0871C17.609 12.0627 17.1508 12.1662 16.7455 12.386C16.3402 12.6058 16.0035 12.9335 15.7728 13.3327C15.5421 13.732 15.4263 14.1872 15.4382 14.6482C15.4501 15.1091 15.5893 15.5578 15.8403 15.9446C14.8329 16.9358 13.5897 17.6542 12.2278 18.0321C12.0187 17.6209 11.6998 17.2755 11.3065 17.0343C10.9132 16.7931 10.4609 16.6655 9.99949 16.6655C9.53813 16.6655 9.08577 16.7931 8.69248 17.0343C8.29919 17.2755 7.98032 17.6209 7.77116 18.0321C6.40932 17.6542 5.16611 16.9358 4.15866 15.9446C4.40991 15.5578 4.54927 15.109 4.5613 14.6479C4.57333 14.1869 4.45757 13.7314 4.22684 13.3321C3.9961 12.9327 3.65937 12.6049 3.25391 12.3851C2.84846 12.1652 2.39008 12.0618 1.92949 12.0863C1.75866 11.4204 1.66699 10.7221 1.66699 10.0004ZM5.67033 12.5004C6.19533 13.4096 6.34533 14.4554 6.14033 15.4371C6.48033 15.6788 6.84199 15.8879 7.22116 16.0621C7.98505 15.3778 8.97475 14.9997 10.0003 15.0004C11.0503 15.0004 12.032 15.3929 12.7795 16.0621C13.1587 15.8879 13.5203 15.6788 13.8603 15.4371C13.6499 14.4337 13.8172 13.388 14.3303 12.5004C14.8425 11.6124 15.6645 10.9447 16.6387 10.6254C16.6772 10.2096 16.6772 9.79119 16.6387 9.37542C15.6642 9.0563 14.8419 8.3886 14.3295 7.50042C13.8164 6.61286 13.649 5.56711 13.8595 4.56375C13.5196 4.32202 13.1577 4.11277 12.7787 3.93875C12.015 4.62286 11.0256 5.00092 10.0003 5.00042C8.97475 5.00113 7.98505 4.62305 7.22116 3.93875C6.8421 4.11277 6.48023 4.32202 6.14033 4.56375C6.3508 5.56711 6.18343 6.61286 5.67033 7.50042C5.15814 8.38844 4.33614 9.05612 3.36199 9.37542C3.32345 9.79119 3.32345 10.2096 3.36199 10.6254C4.33645 10.9445 5.15877 11.6122 5.67116 12.5004H5.67033ZM10.0003 12.5004C9.33728 12.5004 8.7014 12.237 8.23256 11.7682C7.76372 11.2993 7.50033 10.6635 7.50033 10.0004C7.50033 9.33738 7.76372 8.70149 8.23256 8.23265C8.7014 7.76381 9.33728 7.50042 10.0003 7.50042C10.6634 7.50042 11.2993 7.76381 11.7681 8.23265C12.2369 8.70149 12.5003 9.33738 12.5003 10.0004C12.5003 10.6635 12.2369 11.2993 11.7681 11.7682C11.2993 12.237 10.6634 12.5004 10.0003 12.5004ZM10.0003 10.8337C10.2213 10.8337 10.4333 10.746 10.5896 10.5897C10.7459 10.4334 10.8337 10.2214 10.8337 10.0004C10.8337 9.7794 10.7459 9.56744 10.5896 9.41116C10.4333 9.25488 10.2213 9.16708 10.0003 9.16708C9.77931 9.16708 9.56735 9.25488 9.41107 9.41116C9.25479 9.56744 9.16699 9.7794 9.16699 10.0004C9.16699 10.2214 9.25479 10.4334 9.41107 10.5897C9.56735 10.746 9.77931 10.8337 10.0003 10.8337Z" fill="#363739"/>
</g>
<defs>
<clipPath id="clip0_589_11075">
<rect width="20" height="20" fill="white"/>
</clipPath>
</defs>
</svg>
