<svg width="14" height="19" viewBox="0 0 14 19" fill="none" xmlns="http://www.w3.org/2000/svg">
<path d="M0.333008 18.124C0.333008 16.3559 1.03539 14.6602 2.28563 13.41C3.53587 12.1597 5.23156 11.4574 6.99967 11.4574C8.76778 11.4574 10.4635 12.1597 11.7137 13.41C12.964 14.6602 13.6663 16.3559 13.6663 18.124H11.9997C11.9997 16.7979 11.4729 15.5262 10.5352 14.5885C9.59753 13.6508 8.32576 13.124 6.99967 13.124C5.67359 13.124 4.40182 13.6508 3.46414 14.5885C2.52646 15.5262 1.99967 16.7979 1.99967 18.124H0.333008ZM6.99967 10.624C4.23717 10.624 1.99967 8.38652 1.99967 5.62402C1.99967 2.86152 4.23717 0.624023 6.99967 0.624023C9.76217 0.624023 11.9997 2.86152 11.9997 5.62402C11.9997 8.38652 9.76217 10.624 6.99967 10.624ZM6.99967 8.95736C8.84134 8.95736 10.333 7.46569 10.333 5.62402C10.333 3.78236 8.84134 2.29069 6.99967 2.29069C5.15801 2.29069 3.66634 3.78236 3.66634 5.62402C3.66634 7.46569 5.15801 8.95736 6.99967 8.95736Z" fill="#4F555F"/>
</svg>
